<?xml version="1.0" standalone="no"?>
<!DOCTYPE svg PUBLIC "-//W3C//DTD SVG 20010904//EN"
 "http://www.w3.org/TR/2001/REC-SVG-20010904/DTD/svg10.dtd">
<svg version="1.0" xmlns="http://www.w3.org/2000/svg"
 width="16.000000pt" height="16.000000pt" viewBox="0 0 16.000000 16.000000"
 preserveAspectRatio="xMidYMid meet">
<metadata>
Created by potrace 1.11, written by Peter Selinger 2001-2013
</metadata>
<g transform="translate(0.000000,16.000000) scale(0.002020,-0.002020)"
fill="#000000" stroke="none">
<path d="M3787 5334 c-1 -1 -119 -5 -262 -8 -143 -4 -281 -9 -306 -11 -26 -1
-109 -6 -185 -10 -77 -3 -157 -8 -179 -10 -22 -2 -80 -6 -130 -10 -49 -3 -110
-7 -135 -9 -25 -3 -83 -7 -130 -11 -47 -3 -101 -8 -120 -10 -19 -2 -70 -7
-112 -10 -43 -3 -88 -8 -100 -10 -13 -2 -59 -6 -103 -10 -44 -4 -91 -9 -105
-10 -14 -2 -56 -6 -95 -9 -38 -4 -81 -8 -95 -11 -14 -2 -52 -6 -84 -10 -33 -3
-73 -8 -90 -10 -17 -2 -89 -11 -161 -20 -71 -9 -143 -17 -160 -20 -16 -2 -52
-7 -80 -10 -27 -4 -61 -8 -75 -10 -14 -2 -47 -7 -75 -10 -70 -9 -167 -23 -270
-41 -98 -17 -231 -50 -316 -80 -222 -77 -328 -179 -314 -303 3 -25 7 -84 10
-130 25 -428 109 -851 228 -1146 87 -216 214 -410 307 -468 23 -14 214 -80
265 -92 11 -2 81 -20 155 -38 191 -48 263 -64 420 -92 146 -27 191 -35 320
-55 116 -17 147 -22 255 -36 22 -3 51 -7 65 -9 14 -2 52 -6 85 -10 33 -3 71
-8 85 -10 14 -2 52 -6 85 -10 33 -3 78 -8 100 -10 22 -2 66 -7 98 -10 31 -3
81 -7 110 -10 56 -5 160 -14 247 -20 30 -2 89 -7 130 -10 41 -3 113 -8 160
-10 47 -3 125 -7 174 -10 384 -23 725 -23 1116 0 41 2 120 7 175 10 55 3 123
8 150 10 28 2 88 6 135 10 47 3 103 7 125 10 22 3 74 7 115 11 121 9 270 23
310 29 14 2 52 6 85 10 33 3 71 7 85 10 14 2 52 7 85 10 33 3 67 8 75 10 8 2
40 6 70 10 30 3 66 7 80 10 14 2 43 6 65 10 22 3 69 10 105 16 36 6 79 13 95
15 17 3 75 14 130 24 55 10 116 22 135 25 19 3 42 8 50 10 8 2 29 7 45 9 45 8
349 84 408 102 181 56 215 69 254 101 82 66 184 219 252 378 23 55 46 109 51
120 39 87 100 322 144 552 8 38 36 236 41 288 35 331 39 436 21 479 -41 97
-205 193 -431 250 -115 29 -264 55 -470 81 -21 3 -50 7 -64 10 -29 4 -67 9
-191 25 -47 6 -98 12 -115 15 -68 9 -123 15 -262 30 -24 3 -62 7 -85 10 -41 4
-70 8 -178 19 -25 3 -79 8 -120 11 -41 4 -85 8 -98 10 -12 2 -57 7 -100 10
-42 3 -90 8 -107 10 -16 2 -70 7 -120 10 -49 3 -108 8 -131 10 -23 3 -83 7
-135 10 -52 3 -116 8 -144 10 -197 17 -711 37 -1036 39 -127 1 -231 1 -232 0z"/>
</g>
</svg>
